<svg viewBox="19 19 310 310" fill="none" xmlns="http://www.w3.org/2000/svg">
<path d="M297.25 147.755H255.345C220.98 147.755 192.995 119.77 192.995 85.405V43.5C192.995 35.525 186.47 29 178.495 29H117.015C72.355 29 36.25 58 36.25 109.765V238.235C36.25 290 72.355 319 117.015 319H230.985C275.645 319 311.75 290 311.75 238.235V162.255C311.75 154.28 305.225 147.755 297.25 147.755Z" fill="url(#paint0_linear_259_314)"/>
<path d="M229.095 32.052C223.15 26.107 212.855 30.167 212.855 38.432V89.037C212.855 110.207 230.835 127.752 252.73 127.752C266.505 127.897 285.645 127.897 302.03 127.897C310.295 127.897 314.645 118.182 308.845 112.382C287.965 91.357 250.555 53.512 229.095 32.052Z" fill="white"/>
<defs>
<linearGradient id="paint0_linear_259_314" x1="254.5" y1="86.5" x2="35.9999" y2="319" gradientUnits="userSpaceOnUse">
<stop stop-color="#5509C9"/>
<stop offset="0.42797" stop-color="#6A01FD"/>
</linearGradient>
</defs>
</svg>
